<?xml version="1.0" ?><!-- License: PD. Made by undefinedadriansyauqi -->
<svg width="32px" height="32px" viewBox="0 0 32 32" xmlns="http://www.w3.org/2000/svg"><title/><path fill="#8e9297" d="M11.5,8a1,1,0,0,1-1,1A2.5,2.5,0,0,0,8,11.5a1,1,0,0,1-2,0A4.5,4.5,0,0,1,10.5,7,1,1,0,0,1,11.5,8ZM28.45,25.329a1,1,0,0,1-.293.707l-2.122,2.121a1,1,0,0,1-1.414,0l-7.778-7.778a1,1,0,0,1,0-1.414l.354-.354L15.584,17a7.522,7.522,0,1,1,1.28-1.548L18.611,17.2l.354-.353a1,1,0,0,1,1.414,0l7.778,7.778A1,1,0,0,1,28.45,25.329ZM16,11.5A5.5,5.5,0,1,0,10.5,17,5.507,5.507,0,0,0,16,11.5ZM26.036,25.329l-6.364-6.364-.708.707,6.364,6.364Z"/></svg>